<svg width="34" height="34" viewBox="0 0 34 34" fill="none" xmlns="http://www.w3.org/2000/svg">
<path d="M22.6674 12.7497V8.49967C22.6674 5.37006 20.1303 2.83301 17.0007 2.83301C13.8711 2.83301 11.334 5.37006 11.334 8.49967V12.7497M5.08936 14.665L4.23936 23.7316C3.99768 26.3095 3.87684 27.5985 4.30459 28.5941C4.68036 29.4686 5.33885 30.1918 6.17455 30.6475C7.12585 31.1663 8.42045 31.1663 11.0097 31.1663H22.9917C25.5809 31.1663 26.8755 31.1663 27.8268 30.6475C28.6625 30.1918 29.321 29.4686 29.6968 28.5941C30.1245 27.5985 30.0037 26.3095 29.762 23.7316L28.912 14.665C28.7079 12.4881 28.6059 11.3996 28.1163 10.5767C27.6852 9.852 27.0482 9.27192 26.2863 8.91029C25.4213 8.49968 24.3281 8.49968 22.1417 8.49968L11.8597 8.49967C9.67325 8.49967 8.58004 8.49967 7.71503 8.91028C6.95321 9.27191 6.3162 9.852 5.88504 10.5767C5.39548 11.3996 5.29344 12.4881 5.08936 14.665Z" stroke="black" stroke-width="2" stroke-linecap="round" stroke-linejoin="round"/>
</svg>
