<svg width="34" height="34" viewBox="0 0 34 34" fill="none" xmlns="http://www.w3.org/2000/svg">
<path d="M22.6667 11.333V6.37556C22.6667 5.19726 22.6667 4.60812 22.4185 4.24605C22.2016 3.92972 21.8657 3.71484 21.4877 3.6505C21.0549 3.57686 20.52 3.82375 19.4501 4.31752L6.8836 10.1175C5.92947 10.5578 5.4524 10.778 5.10298 11.1195C4.79408 11.4214 4.55829 11.7899 4.41363 12.1969C4.25 12.6573 4.25 13.1827 4.25 14.2335V21.2496M23.375 20.5413H23.3892M4.25 15.8663L4.25 25.2163C4.25 26.8031 4.25 27.5965 4.55881 28.2026C4.83046 28.7357 5.2639 29.1692 5.79703 29.4408C6.40311 29.7496 7.19652 29.7496 8.78333 29.7496H25.2167C26.8035 29.7496 27.5969 29.7496 28.203 29.4408C28.7361 29.1692 29.1695 28.7357 29.4412 28.2026C29.75 27.5965 29.75 26.8031 29.75 25.2163V15.8663C29.75 14.2795 29.75 13.4861 29.4412 12.88C29.1695 12.3469 28.7361 11.9134 28.203 11.6418C27.5969 11.333 26.8035 11.333 25.2167 11.333L8.78333 11.333C7.19652 11.333 6.40311 11.333 5.79703 11.6418C5.2639 11.9134 4.83046 12.3469 4.55882 12.88C4.25 13.4861 4.25 14.2795 4.25 15.8663ZM24.0833 20.5413C24.0833 20.9325 23.7662 21.2496 23.375 21.2496C22.9838 21.2496 22.6667 20.9325 22.6667 20.5413C22.6667 20.1501 22.9838 19.833 23.375 19.833C23.7662 19.833 24.0833 20.1501 24.0833 20.5413Z" stroke="black" stroke-width="2" stroke-linecap="round" stroke-linejoin="round"/>
</svg>
