<svg width="63" height="62" viewBox="0 0 63 62" fill="none" xmlns="http://www.w3.org/2000/svg">
<circle cx="31.9941" cy="30.9995" r="31" transform="rotate(180 31.9941 30.9995)" fill="url(#paint0_linear_0_2215)"/>
<path d="M15.0923 29.8295C14.7018 30.22 14.7018 30.8532 15.0923 31.2437L21.4563 37.6077C21.8468 37.9982 22.48 37.9982 22.8705 37.6077C23.261 37.2172 23.261 36.584 22.8705 36.1935L17.2137 30.5366L22.8705 24.8798C23.261 24.4892 23.261 23.8561 22.8705 23.4656C22.48 23.075 21.8468 23.075 21.4563 23.4656L15.0923 29.8295ZM48.1875 29.5366L15.7994 29.5366L15.7994 31.5366L48.1875 31.5366L48.1875 29.5366Z" fill="white"/>
<defs>
<linearGradient id="paint0_linear_0_2215" x1="1.39221" y1="30.9996" x2="62.9941" y2="30.9996" gradientUnits="userSpaceOnUse">
<stop stop-color="#462885"/>
<stop offset="1" stop-color="#A021A7"/>
</linearGradient>
</defs>
</svg>
