<svg width="24" height="20" viewBox="0 0 24 20" fill="none" xmlns="http://www.w3.org/2000/svg">
<path d="M23.1053 2.88272C23.3759 2.49635 23.3917 1.99901 23.1462 1.59805C22.9007 1.19709 22.436 0.961334 21.9459 0.989074L1.69184 2.13541C1.17868 2.16446 0.732218 2.47669 0.553785 2.93129C0.37535 3.38589 0.498668 3.89697 0.868122 4.23403L5.71266 8.65382C6.12862 9.03331 6.76097 9.10681 7.2622 8.83393L12.3943 6.04C13.0143 5.70246 13.8071 5.90277 14.1651 6.48741C14.523 7.07205 14.3106 7.81962 13.6906 8.15716L8.55852 10.9511C8.05728 11.224 7.80862 11.7771 7.94917 12.3065L9.58618 18.4725C9.71103 18.9428 10.1188 19.299 10.6255 19.3806C11.1322 19.4622 11.6422 19.2537 11.9255 18.8492L23.1053 2.88272Z" fill="url(#paint0_linear_0_4153)"/>
<defs>
<linearGradient id="paint0_linear_0_4153" x1="9.04636" y1="-1.87246" x2="18.4691" y2="15.4358" gradientUnits="userSpaceOnUse">
<stop stop-color="#462885"/>
<stop offset="1" stop-color="#A021A7"/>
</linearGradient>
</defs>
</svg>
